<svg xmlns:xlink="http://www.w3.org/1999/xlink" xmlns="http://www.w3.org/2000/svg" version="1.1" width="30px" height="30px" data-arp-injected="true">
  <g transform="matrix(1 0 0 1 -151 -768 )">
    <path d="M 28.41796875 27.2377232142857  C 30.5943080357143 24.609375  29.6902901785714 23.0022321428571  28.3844866071429 21.6545758928571  C 27.1623883928571 20.3989955357143  23.6886160714286 18.046875  21.4118303571429 18.046875  C 20.8844866071429 18.046875  20.4241071428571 18.1640625  20.0474330357143 18.4068080357143  C 18.9341517857143 19.1183035714286  18.046875 19.6707589285714  17.6199776785714 19.6707589285714  C 17.3856026785714 19.6707589285714  17.1344866071429 19.4614955357143  16.58203125 18.984375  L 16.4899553571429 18.9006696428571  C 14.9581473214286 17.5697544642857  14.6316964285714 17.2265625  14.0373883928571 16.6071428571429  L 13.88671875 16.4481026785714  C 13.7779017857143 16.3392857142857  13.6858258928571 16.2388392857143  13.59375 16.1467633928571  C 13.0747767857143 15.6110491071429  12.6981026785714 15.2260044642857  11.3671875 13.7193080357143  L 11.30859375 13.65234375  C 10.6724330357143 12.9324776785714  10.25390625 12.4637276785714  10.2287946428571 12.1205357142857  C 10.2036830357143 11.7857142857143  10.4966517857143 11.2416294642857  11.2416294642857 10.2287946428571  C 12.1456473214286 9.00669642857143  12.1791294642857 7.5  11.3504464285714 5.75055803571429  C 10.6891741071429 4.36941964285715  9.60937499999999 3.046875  8.65513392857142 1.88337053571429  L 8.57142857142857 1.78292410714286  C 7.75111607142857 0.778459821428573  6.796875 0.27622767857143  5.73381696428571 0.27622767857143  C 4.55357142857142 0.27622767857143  3.57421874999999 0.912388392857144  3.05524553571428 1.24720982142857  C 3.01339285714285 1.27232142857143  2.97154017857142 1.30580357142857  2.92968749999999 1.33091517857143  C 1.76618303571428 2.06752232142857  0.920758928571423 3.08035714285714  0.602678571428565 4.10993303571429  C 0.12555803571428 5.65848214285715  -0.192522321428578 7.66741071428572  2.09263392857142 11.8443080357143  C 4.06808035714285 15.4603794642857  5.85937499999999 17.8878348214286  8.70535714285714 20.8091517857143  C 11.3839285714286 23.5546875  12.5725446428571 24.4419642857143  15.234375 26.3671875  C 18.1975446428571 28.5100446428571  21.0435267857143 29.7405133928571  23.0357142857143 29.7405133928571  C 24.8856026785714 29.7405133928571  26.3420758928571 29.7405133928571  28.41796875 27.2377232142857  Z M 27.4720982142857 22.6590401785714  C 28.4765625 23.6802455357143  28.9787946428571 24.4503348214286  27.421875 26.3337053571429  C 25.7477678571429 28.359375  24.78515625 28.359375  23.0440848214286 28.359375  C 21.3448660714286 28.359375  18.7081473214286 27.1875  15.99609375 25.2371651785714  C 13.4012276785714 23.3621651785714  12.24609375 22.5  9.64285714285714 19.8297991071429  C 6.88895089285714 17.0089285714286  5.15625 14.6568080357143  3.24776785714285 11.1662946428571  C 1.23046875 7.47488839285714  1.45647321428571 5.85937499999999  1.86662946428571 4.52845982142857  C 2.08426339285714 3.81696428571428  2.73716517857143 3.05524553571428  3.62444196428571 2.50279017857142  C 3.66629464285714 2.47767857142857  3.70814732142857 2.44419642857142  3.75837053571428 2.41908482142856  C 4.20200892857143 2.13448660714285  4.93861607142857 1.65736607142857  5.7421875 1.65736607142857  C 6.41183035714285 1.65736607142857  7.00613839285714 1.99218749999999  7.57533482142857 2.68694196428571  L 7.65904017857143 2.78738839285714  C 9.79352678571428 5.39899553571428  11.4592633928571 7.70926339285714  10.2036830357143 9.41685267857142  C 9.31640625 10.6138392857143  8.84765625 11.42578125  8.92299107142857 12.2628348214286  C 8.98995535714285 13.0747767857143  9.53404017857143 13.6858258928571  10.3543526785714 14.6065848214286  L 10.4129464285714 14.6735491071429  C 11.7606026785714 16.1969866071429  12.1456473214286 16.5987723214286  12.6813616071429 17.1428571428571  C 12.7734375 17.2349330357143  12.8655133928571 17.3353794642857  12.9743303571429 17.4441964285714  L 13.125 17.6032366071429  C 13.7444196428571 18.2477678571428  14.0876116071429 18.5993303571428  15.6612723214286 19.98046875  L 15.7533482142857 20.0641741071428  C 16.4229910714286 20.6501116071428  16.9168526785714 21.0770089285714  17.63671875 21.0770089285714  C 18.3816964285714 21.0770089285714  19.2020089285714 20.6082589285714  20.7589285714286 19.6121651785714  C 20.91796875 19.51171875  21.1439732142857 19.453125  21.4285714285714 19.453125  C 23.2449776785714 19.453125  26.3755580357143 21.5290178571429  27.4720982142857 22.6590401785714  Z " fill-rule="nonzero" fill="#ffffff" stroke="none" transform="matrix(1 0 0 1 151 768 )"/>
  </g>
</svg>