<?xml version="1.0" encoding="utf-8"?>
<svg version="1.1" xmlns:xlink="http://www.w3.org/1999/xlink" width="16px" height="16px" xmlns="http://www.w3.org/2000/svg">
  <g transform="matrix(1 0 0 1 -939 -170 )">
    <path d="M 14.9490131578947 15.8947368421053  L 15.9070723684211 14.9366776315789  L 11.2483552631579 10.2738486842105  C 12.1036184210526 9.2047697368421  12.6175986842105 7.84375  12.6175986842105 6.36348684210526  C 12.6175986842105 2.90542763157895  9.81743421052632 0.105263157894738  6.36759868421053 0.105263157894738  C 2.91365131578947 0.105263157894738  0.117598684210527 2.90953947368421  0.117598684210527 6.36348684210526  C 0.117598684210527 9.81743421052632  2.91776315789474 12.6217105263158  6.36759868421053 12.6217105263158  C 7.85608552631579 12.6217105263158  9.22121710526316 12.0995065789474  10.2944078947368 11.2319078947368  L 14.9490131578947 15.8947368421053  Z M 6.36759868421053 11.9638157894737  C 4.875 11.9679276315789  3.46875 11.3840460526316  2.41200657894737 10.3273026315789  C 1.35526315789474 9.27055921052632  0.775493421052632 7.86430921052632  0.775493421052632 6.36759868421053  C 0.775493421052632 4.87088815789474  1.359375 3.46463815789474  2.41200657894737 2.40789473684211  C 3.46463815789474 1.35115131578947  4.875 0.763157894736842  6.36759868421053 0.763157894736842  C 7.86019736842105 0.763157894736842  9.26644736842105 1.34703947368421  10.3231907894737 2.40378289473684  C 11.3799342105263 3.46052631578947  11.9597039473684 4.86677631578947  11.9597039473684 6.36348684210526  C 11.9597039473684 7.86019736842105  11.3758223684211 9.26644736842105  10.3231907894737 10.3231907894737  C 9.26644736842105 11.3799342105263  7.86019736842105 11.9638157894737  6.36759868421053 11.9638157894737  Z " fill-rule="nonzero" fill="#333333" stroke="none" transform="matrix(1 0 0 1 939 170 )" />
  </g>
</svg>